<svg width="54" height="54" viewBox="0 0 54 54" fill="none" xmlns="http://www.w3.org/2000/svg">
<path fill-rule="evenodd" clip-rule="evenodd" d="M16.875 13.5C16.875 10.8147 17.9417 8.23935 19.8405 6.34054C21.7393 4.44174 24.3147 3.375 27 3.375C29.6853 3.375 32.2606 4.44174 34.1595 6.34054C36.0583 8.23935 37.125 10.8147 37.125 13.5V16.875H39.2951C40.5498 16.8754 41.7597 17.3417 42.6901 18.1836C43.6205 19.0254 44.2051 20.1828 44.3306 21.4312L46.6931 45.0563C46.7639 45.7604 46.6862 46.4715 46.4652 47.1437C46.2442 47.816 45.8847 48.4344 45.4099 48.9592C44.9351 49.4839 44.3555 49.9033 43.7086 50.1902C43.0618 50.4771 42.3619 50.6252 41.6542 50.625H12.3424C11.635 50.6248 10.9355 50.4763 10.289 50.1892C9.64256 49.902 9.06344 49.4826 8.589 48.9579C8.11456 48.4332 7.75535 47.815 7.53451 47.1429C7.31368 46.4709 7.23613 45.7601 7.30687 45.0563L9.66937 21.4312C9.79484 20.1828 10.3795 19.0254 11.3099 18.1836C12.2403 17.3417 13.4501 16.8754 14.7049 16.875H16.875V13.5ZM32.0625 13.5V16.875H21.9375V13.5C21.9375 12.1573 22.4709 10.8697 23.4203 9.92027C24.3697 8.97087 25.6573 8.4375 27 8.4375C28.3427 8.4375 29.6303 8.97087 30.5797 9.92027C31.5291 10.8697 32.0625 12.1573 32.0625 13.5ZM21.9375 26.1562C21.9375 25.4849 21.6708 24.8411 21.1961 24.3664C20.7214 23.8917 20.0776 23.625 19.4062 23.625C18.7349 23.625 18.0911 23.8917 17.6164 24.3664C17.1417 24.8411 16.875 25.4849 16.875 26.1562V29.5312C16.875 32.2166 17.9417 34.7919 19.8405 36.6907C21.7393 38.5895 24.3147 39.6562 27 39.6562C29.6853 39.6562 32.2606 38.5895 34.1595 36.6907C36.0583 34.7919 37.125 32.2166 37.125 29.5312V26.1562C37.125 25.4849 36.8583 24.8411 36.3836 24.3664C35.9089 23.8917 35.2651 23.625 34.5937 23.625C33.9224 23.625 33.2786 23.8917 32.8039 24.3664C32.3292 24.8411 32.0625 25.4849 32.0625 26.1562V29.5312C32.0625 30.8739 31.5291 32.1616 30.5797 33.111C29.6303 34.0604 28.3427 34.5938 27 34.5938C25.6573 34.5938 24.3697 34.0604 23.4203 33.111C22.4709 32.1616 21.9375 30.8739 21.9375 29.5312V26.1562Z" fill="#F4A261"/>
</svg>
